<?xml version="1.0" encoding="UTF-8" standalone="no"?>
<svg version="1.1" preserveAspectRatio="xMidYMid meet" xmlns="http://www.w3.org/2000/svg" xmlns:xlink="http://www.w3.org/1999/xlink" viewBox="0 0 1000 1000" width="1000" height="1000">
	<defs>
		<g id="def-1" transform="matrix(1.24, 0, 0, 1.24, 229.366, 184.343)" fill="#fff" stroke="none" stroke-width="1">
			<g transform="translate(-37.8, -1.5)">
				<g></g>
				<g>
					<path d=" M452.6,109.8 L407,129.9 V99.4 c0 -12.1 -9.8 -21.9 -21.9 -21.9 h-15.6 c0.8 -4,1.2 -8.2,1.2 -12.4 c0 -34.8 -28.3 -63.1 -63.1 -63.1 c-34.8,0 -63.1,28.3 -63.1,63.1 c0,4.2,0.4,8.4,1.2,12.4 h-13.6 c0.8 -4,1.2 -8.2,1.2 -12.4 c0 -34.8 -28.3 -63.1 -63.1 -63.1 c-34.8,0 -63.1,28.3 -63.1,63.1 c0,4.2,0.4,8.4,1.2,12.4 H91.7 c-11.6,0 -21.1,9.1 -21.8,20.6 H38.3 v59.6 h31.4 v92.8 c0,12.1,9.8,21.9,21.9,21.9 h85.9 v49.2 H235 v70.3 L130.8,496 l11.6,11.6 l92.5 -92.5 V510 h16.4 v-94.9 l92.5,92.5 l11.6 -11.6 L251.3,391.9 v-70.3 h57.4 v-49.2 h76.4 c12.1,0,21.9 -9.8,21.9 -21.9 V220 l45.7,20.2 c10.3,2.3,21 -1.7,21 -13.9 V123.6 C473.7,113.2,462.7,105.4,452.6,109.8 z M69.8,141.3 H54.7 v-26.8 h15.1 V141.3 z M307.6,18.4 c25.8,0,46.7,21,46.7,46.7 s-21,46.7 -46.7,46.7 c-25.8,0 -46.7 -21 -46.7 -46.7 S281.8,18.4,307.6,18.4 z M170.3,18.4 c25.8,0,46.7,21,46.7,46.7 s-21,46.7 -46.7,46.7 c-25.8,0 -46.7 -21 -46.7 -46.7 S144.5,18.4,170.3,18.4 z M292.3,305.2 H194 v-32.8 h98.3 V305.2 z M390.6,250.5 c0,3.1 -2.5,5.5 -5.5,5.5 H91.7 c-3.1,0 -5.5 -2.5 -5.5 -5.5 v-151 c0 -3.1,2.5 -5.5,5.5 -5.5 h22.5 c10.5,20.4,31.7,34.3,56.1,34.3 c24.4,0,45.6 -14,56.1 -34.3 h25.1 c10.5,20.4,31.7,34.3,56.1,34.3 s45.6 -14,56.1 -34.3 h21.4 c3.1,0,5.5,2.5,5.5,5.5 V250.5 z M457.3,224.3 L407,202.1 v-54.2 l50.3 -22.3 V224.3 z"></path>
					<rect x="103.9" y="190.5" width="49.2" height="16.4"></rect>
					<rect x="103.9" y="223.2" width="49.2" height="16.4"></rect>
				</g>
			</g>
		</g>
		<mask id="mask-1" x="202.303" y="157.28" width="595.395" height="685.441" maskUnits="userSpaceOnUse" stroke-width="0">
			<rect x="229.366" y="184.343" width="541.268" height="631.314" fill="#000"></rect>
			<use xlink:href="#def-1" fill="#fff" stroke="#fff"></use>
		</mask>
	</defs>
	<g mask="url(#mask-1)">
		<rect x="229.366" y="184.343" width="541.268" height="631.314" fill="#000"></rect>
	</g>
</svg>
